<mxfile host="app.diagrams.net" modified="2021-07-25T15:36:32.885Z" agent="5.0 (Windows NT 10.0; Win64; x64) AppleWebKit/537.36 (KHTML, like Gecko) Chrome/90.0.4430.93 Safari/537.36" etag="6rMugEfzDtxoh1QBW81w" version="14.8.2" type="github">
  <diagram id="9RC7Ofi7bKPdiGl11YAT" name="Page-1">
    <mxGraphModel dx="1328" dy="1971" grid="1" gridSize="10" guides="1" tooltips="1" connect="1" arrows="1" fold="1" page="1" pageScale="1" pageWidth="827" pageHeight="1169" math="0" shadow="0">
      <root>
        <mxCell id="0" />
        <mxCell id="1" parent="0" />
        <mxCell id="r5fYXKavH5drfjv6AZ6E-1" value="" style="rounded=1;whiteSpace=wrap;html=1;strokeColor=#23445d;fillColor=#bac8d3;" vertex="1" parent="1">
          <mxGeometry x="140" y="110" width="199" height="335" as="geometry" />
        </mxCell>
        <mxCell id="r5fYXKavH5drfjv6AZ6E-2" value="" style="rounded=1;whiteSpace=wrap;html=1;strokeColor=#7EA6E0;fillColor=#D4E1F5;" vertex="1" parent="1">
          <mxGeometry x="414" y="117.5" width="199" height="322.5" as="geometry" />
        </mxCell>
        <mxCell id="r5fYXKavH5drfjv6AZ6E-3" value="&lt;div style=&quot;text-align: justify&quot;&gt;&lt;br&gt;&lt;/div&gt;" style="rounded=1;whiteSpace=wrap;html=1;align=right;fillColor=#bac8d3;strokeColor=#23445d;" vertex="1" parent="1">
          <mxGeometry x="164" y="160" width="150" height="260" as="geometry" />
        </mxCell>
        <mxCell id="r5fYXKavH5drfjv6AZ6E-4" value="PipeState" style="rounded=1;whiteSpace=wrap;html=1;fillColor=#bac8d3;strokeColor=#23445d;" vertex="1" parent="1">
          <mxGeometry x="182" y="210" width="115" height="30" as="geometry" />
        </mxCell>
        <mxCell id="r5fYXKavH5drfjv6AZ6E-5" value="BirdState" style="rounded=1;whiteSpace=wrap;html=1;fillColor=#bac8d3;strokeColor=#23445d;" vertex="1" parent="1">
          <mxGeometry x="182" y="250" width="115" height="30" as="geometry" />
        </mxCell>
        <mxCell id="r5fYXKavH5drfjv6AZ6E-6" value="RoadState" style="rounded=1;whiteSpace=wrap;html=1;fillColor=#bac8d3;strokeColor=#23445d;" vertex="1" parent="1">
          <mxGeometry x="182" y="290" width="115" height="30" as="geometry" />
        </mxCell>
        <mxCell id="r5fYXKavH5drfjv6AZ6E-7" value="Score" style="rounded=1;whiteSpace=wrap;html=1;fillColor=#bac8d3;strokeColor=#23445d;" vertex="1" parent="1">
          <mxGeometry x="182" y="330" width="115" height="30" as="geometry" />
        </mxCell>
        <mxCell id="r5fYXKavH5drfjv6AZ6E-8" value="BestScore" style="rounded=1;whiteSpace=wrap;html=1;fillColor=#bac8d3;strokeColor=#23445d;" vertex="1" parent="1">
          <mxGeometry x="182" y="370" width="115" height="30" as="geometry" />
        </mxCell>
        <mxCell id="r5fYXKavH5drfjv6AZ6E-10" value="ViewState" style="rounded=1;whiteSpace=wrap;html=1;strokeColor=none;fillColor=none;" vertex="1" parent="1">
          <mxGeometry x="177.5" y="170" width="115" height="30" as="geometry" />
        </mxCell>
        <mxCell id="r5fYXKavH5drfjv6AZ6E-11" value="ViewModel" style="rounded=1;whiteSpace=wrap;html=1;strokeColor=none;fillColor=none;" vertex="1" parent="1">
          <mxGeometry x="182" y="120" width="115" height="30" as="geometry" />
        </mxCell>
        <mxCell id="r5fYXKavH5drfjv6AZ6E-12" value="Compose View" style="rounded=1;whiteSpace=wrap;html=1;strokeColor=none;fillColor=none;" vertex="1" parent="1">
          <mxGeometry x="456" y="120" width="115" height="30" as="geometry" />
        </mxCell>
        <mxCell id="r5fYXKavH5drfjv6AZ6E-17" value="&lt;div style=&quot;text-align: justify&quot;&gt;&lt;br&gt;&lt;/div&gt;" style="rounded=1;whiteSpace=wrap;html=1;align=right;fillColor=#dae8fc;strokeColor=#6c8ebf;" vertex="1" parent="1">
          <mxGeometry x="440" y="160" width="150" height="260" as="geometry" />
        </mxCell>
        <mxCell id="r5fYXKavH5drfjv6AZ6E-18" value="PipeCopule" style="rounded=1;whiteSpace=wrap;html=1;fillColor=#dae8fc;strokeColor=#6c8ebf;" vertex="1" parent="1">
          <mxGeometry x="457.5" y="250" width="115" height="30" as="geometry" />
        </mxCell>
        <mxCell id="r5fYXKavH5drfjv6AZ6E-22" value="BackGround" style="rounded=1;whiteSpace=wrap;html=1;fillColor=#dae8fc;strokeColor=#6c8ebf;" vertex="1" parent="1">
          <mxGeometry x="456" y="210" width="115" height="30" as="geometry" />
        </mxCell>
        <mxCell id="r5fYXKavH5drfjv6AZ6E-23" value="GameScreen" style="rounded=1;whiteSpace=wrap;html=1;strokeColor=none;fillColor=none;" vertex="1" parent="1">
          <mxGeometry x="456" y="170" width="115" height="30" as="geometry" />
        </mxCell>
        <mxCell id="r5fYXKavH5drfjv6AZ6E-24" value="ScoreBoard" style="rounded=1;whiteSpace=wrap;html=1;fillColor=#dae8fc;strokeColor=#6c8ebf;" vertex="1" parent="1">
          <mxGeometry x="457.5" y="370" width="115" height="30" as="geometry" />
        </mxCell>
        <mxCell id="r5fYXKavH5drfjv6AZ6E-25" value="Road" style="rounded=1;whiteSpace=wrap;html=1;fillColor=#dae8fc;strokeColor=#6c8ebf;" vertex="1" parent="1">
          <mxGeometry x="457.5" y="330" width="115" height="30" as="geometry" />
        </mxCell>
        <mxCell id="r5fYXKavH5drfjv6AZ6E-26" value="Bird" style="rounded=1;whiteSpace=wrap;html=1;fillColor=#dae8fc;strokeColor=#6c8ebf;" vertex="1" parent="1">
          <mxGeometry x="457.5" y="290" width="115" height="30" as="geometry" />
        </mxCell>
        <mxCell id="r5fYXKavH5drfjv6AZ6E-27" value="" style="html=1;shadow=0;dashed=0;align=center;verticalAlign=middle;shape=mxgraph.arrows2.jumpInArrow;dy=15;dx=38;arrowHead=55;gradientColor=none;opacity=30;rotation=-45;direction=south;strokeColor=#A9C4EB;fillColor=#A9C4EB;" vertex="1" parent="1">
          <mxGeometry x="310" y="-4.5" width="165.14" height="154.5" as="geometry" />
        </mxCell>
        <mxCell id="r5fYXKavH5drfjv6AZ6E-28" value="" style="html=1;shadow=0;dashed=0;align=center;verticalAlign=middle;shape=mxgraph.arrows2.jumpInArrow;dy=15;dx=38;arrowHead=55;gradientColor=none;opacity=30;rotation=135;direction=south;strokeColor=#A9C4EB;fillColor=#A9C4EB;" vertex="1" parent="1">
          <mxGeometry x="290.86" y="430" width="165.14" height="154.5" as="geometry" />
        </mxCell>
        <mxCell id="r5fYXKavH5drfjv6AZ6E-29" value="State Flow" style="rounded=1;whiteSpace=wrap;html=1;strokeColor=#b85450;fillColor=#f8cecc;" vertex="1" parent="1">
          <mxGeometry x="315.93" y="70" width="115" height="30" as="geometry" />
        </mxCell>
        <mxCell id="r5fYXKavH5drfjv6AZ6E-30" value="Dispatch Action" style="rounded=1;whiteSpace=wrap;html=1;strokeColor=#82b366;fillColor=#d5e8d4;" vertex="1" parent="1">
          <mxGeometry x="315.93" y="450" width="115" height="30" as="geometry" />
        </mxCell>
      </root>
    </mxGraphModel>
  </diagram>
</mxfile>
